<svg width="135" height="184" viewBox="0 0 135 184" fill="none" xmlns="http://www.w3.org/2000/svg">
<path d="M4.06057 0C3.51515 0 2.55445 0.676788 2.10095 0.97981C1.64745 1.28283 1.32986 1.45571 1.12114 1.95962C0.912417 2.46353 1.01473 3.38429 1.12114 3.91924C1.22755 4.45418 1.71528 4.51337 2.10095 4.89905C2.48662 5.28472 2.54582 5.77245 3.08076 5.87886C3.6157 5.98527 4.53648 6.08758 5.04038 5.87886C5.54428 5.67013 5.71717 5.35255 6.02019 4.89905C6.32321 4.44554 7 3.48485 7 2.93943C7 2.20804 6.53736 1.49698 6.02019 0.97981C5.50302 0.462637 4.79196 0 4.06057 0Z" fill="#313131"/>
<path d="M4.06057 25C3.51515 25 2.55445 25.6768 2.10095 25.9798C1.64745 26.2828 1.32986 26.4557 1.12114 26.9596C0.912417 27.4635 1.01473 28.3843 1.12114 28.9192C1.22755 29.4542 1.71528 29.5134 2.10095 29.899C2.48662 30.2847 2.54582 30.7725 3.08076 30.8789C3.6157 30.9853 4.53648 31.0876 5.04038 30.8789C5.54428 30.6701 5.71717 30.3526 6.02019 29.899C6.32321 29.4455 7 28.4849 7 27.9394C7 27.208 6.53736 26.497 6.02019 25.9798C5.50302 25.4626 4.79196 25 4.06057 25Z" fill="#313131"/>
<path d="M4.06057 51C3.51515 51 2.55445 51.6768 2.10095 51.9798C1.64745 52.2828 1.32986 52.4557 1.12114 52.9596C0.912417 53.4635 1.01473 54.3843 1.12114 54.9192C1.22755 55.4542 1.71528 55.5134 2.10095 55.899C2.48662 56.2847 2.54582 56.7725 3.08076 56.8789C3.6157 56.9853 4.53648 57.0876 5.04038 56.8789C5.54428 56.6701 5.71717 56.3526 6.02019 55.899C6.32321 55.4455 7 54.4849 7 53.9394C7 53.208 6.53736 52.497 6.02019 51.9798C5.50302 51.4626 4.79196 51 4.06057 51Z" fill="#313131"/>
<path d="M4.06057 76C3.51515 76 2.55445 76.6768 2.10095 76.9798C1.64745 77.2828 1.32986 77.4557 1.12114 77.9596C0.912417 78.4635 1.01473 79.3843 1.12114 79.9192C1.22755 80.4542 1.71528 80.5134 2.10095 80.899C2.48662 81.2847 2.54582 81.7725 3.08076 81.8789C3.6157 81.9853 4.53648 82.0876 5.04038 81.8789C5.54428 81.6701 5.71717 81.3526 6.02019 80.899C6.32321 80.4455 7 79.4849 7 78.9394C7 78.208 6.53736 77.497 6.02019 76.9798C5.50302 76.4626 4.79196 76 4.06057 76Z" fill="#313131"/>
<path d="M4.06057 102C3.51515 102 2.55445 102.677 2.10095 102.98C1.64745 103.283 1.32986 103.456 1.12114 103.96C0.912417 104.464 1.01473 105.384 1.12114 105.919C1.22755 106.454 1.71528 106.513 2.10095 106.899C2.48662 107.285 2.54582 107.772 3.08076 107.879C3.6157 107.985 4.53648 108.088 5.04038 107.879C5.54428 107.67 5.71717 107.353 6.02019 106.899C6.32321 106.446 7 105.485 7 104.939C7 104.208 6.53736 103.497 6.02019 102.98C5.50302 102.463 4.79196 102 4.06057 102Z" fill="#313131"/>
<path d="M4.06057 127C3.51515 127 2.55445 127.677 2.10095 127.98C1.64745 128.283 1.32986 128.456 1.12114 128.96C0.912417 129.464 1.01473 130.384 1.12114 130.919C1.22755 131.454 1.71528 131.513 2.10095 131.899C2.48662 132.285 2.54582 132.772 3.08076 132.879C3.6157 132.985 4.53648 133.088 5.04038 132.879C5.54428 132.67 5.71717 132.353 6.02019 131.899C6.32321 131.446 7 130.485 7 129.939C7 129.208 6.53736 128.497 6.02019 127.98C5.50302 127.463 4.79196 127 4.06057 127Z" fill="#313131"/>
<path d="M4.06057 152C3.51515 152 2.55445 152.677 2.10095 152.98C1.64745 153.283 1.32986 153.456 1.12114 153.96C0.912417 154.464 1.01473 155.384 1.12114 155.919C1.22755 156.454 1.71528 156.513 2.10095 156.899C2.48662 157.285 2.54582 157.772 3.08076 157.879C3.6157 157.985 4.53648 158.088 5.04038 157.879C5.54428 157.67 5.71717 157.353 6.02019 156.899C6.32321 156.446 7 155.485 7 154.939C7 154.208 6.53736 153.497 6.02019 152.98C5.50302 152.463 4.79196 152 4.06057 152Z" fill="#313131"/>
<path d="M4.06057 178C3.51515 178 2.55445 178.677 2.10095 178.98C1.64745 179.283 1.32986 179.456 1.12114 179.96C0.912417 180.464 1.01473 181.384 1.12114 181.919C1.22755 182.454 1.71528 182.513 2.10095 182.899C2.48662 183.285 2.54582 183.772 3.08076 183.879C3.6157 183.985 4.53648 184.088 5.04038 183.879C5.54428 183.67 5.71717 183.353 6.02019 182.899C6.32321 182.446 7 181.485 7 180.939C7 180.208 6.53736 179.497 6.02019 178.98C5.50302 178.463 4.79196 178 4.06057 178Z" fill="#313131"/>
<path d="M30.0606 0C29.5151 0 28.5545 0.676788 28.101 0.97981C27.6474 1.28283 27.3299 1.45571 27.1211 1.95962C26.9124 2.46353 27.0147 3.38429 27.1211 3.91924C27.2275 4.45418 27.7153 4.51337 28.101 4.89905C28.4866 5.28472 28.5458 5.77245 29.0808 5.87886C29.6157 5.98527 30.5365 6.08758 31.0404 5.87886C31.5443 5.67013 31.7172 5.35255 32.0202 4.89905C32.3232 4.44554 33 3.48485 33 2.93943C33 2.20804 32.5374 1.49698 32.0202 0.97981C31.503 0.462637 30.792 0 30.0606 0Z" fill="#313131"/>
<path d="M30.0606 25C29.5151 25 28.5545 25.6768 28.101 25.9798C27.6474 26.2828 27.3299 26.4557 27.1211 26.9596C26.9124 27.4635 27.0147 28.3843 27.1211 28.9192C27.2275 29.4542 27.7153 29.5134 28.101 29.899C28.4866 30.2847 28.5458 30.7725 29.0808 30.8789C29.6157 30.9853 30.5365 31.0876 31.0404 30.8789C31.5443 30.6701 31.7172 30.3526 32.0202 29.899C32.3232 29.4455 33 28.4849 33 27.9394C33 27.208 32.5374 26.497 32.0202 25.9798C31.503 25.4626 30.792 25 30.0606 25Z" fill="#313131"/>
<path d="M30.0606 51C29.5151 51 28.5545 51.6768 28.101 51.9798C27.6474 52.2828 27.3299 52.4557 27.1211 52.9596C26.9124 53.4635 27.0147 54.3843 27.1211 54.9192C27.2275 55.4542 27.7153 55.5134 28.101 55.899C28.4866 56.2847 28.5458 56.7725 29.0808 56.8789C29.6157 56.9853 30.5365 57.0876 31.0404 56.8789C31.5443 56.6701 31.7172 56.3526 32.0202 55.899C32.3232 55.4455 33 54.4849 33 53.9394C33 53.208 32.5374 52.497 32.0202 51.9798C31.503 51.4626 30.792 51 30.0606 51Z" fill="#313131"/>
<path d="M30.0606 76C29.5151 76 28.5545 76.6768 28.101 76.9798C27.6474 77.2828 27.3299 77.4557 27.1211 77.9596C26.9124 78.4635 27.0147 79.3843 27.1211 79.9192C27.2275 80.4542 27.7153 80.5134 28.101 80.899C28.4866 81.2847 28.5458 81.7725 29.0808 81.8789C29.6157 81.9853 30.5365 82.0876 31.0404 81.8789C31.5443 81.6701 31.7172 81.3526 32.0202 80.899C32.3232 80.4455 33 79.4849 33 78.9394C33 78.208 32.5374 77.497 32.0202 76.9798C31.503 76.4626 30.792 76 30.0606 76Z" fill="#313131"/>
<path d="M30.0606 102C29.5151 102 28.5545 102.677 28.101 102.98C27.6474 103.283 27.3299 103.456 27.1211 103.96C26.9124 104.464 27.0147 105.384 27.1211 105.919C27.2275 106.454 27.7153 106.513 28.101 106.899C28.4866 107.285 28.5458 107.772 29.0808 107.879C29.6157 107.985 30.5365 108.088 31.0404 107.879C31.5443 107.67 31.7172 107.353 32.0202 106.899C32.3232 106.446 33 105.485 33 104.939C33 104.208 32.5374 103.497 32.0202 102.98C31.503 102.463 30.792 102 30.0606 102Z" fill="#313131"/>
<path d="M30.0606 127C29.5151 127 28.5545 127.677 28.101 127.98C27.6474 128.283 27.3299 128.456 27.1211 128.96C26.9124 129.464 27.0147 130.384 27.1211 130.919C27.2275 131.454 27.7153 131.513 28.101 131.899C28.4866 132.285 28.5458 132.772 29.0808 132.879C29.6157 132.985 30.5365 133.088 31.0404 132.879C31.5443 132.67 31.7172 132.353 32.0202 131.899C32.3232 131.446 33 130.485 33 129.939C33 129.208 32.5374 128.497 32.0202 127.98C31.503 127.463 30.792 127 30.0606 127Z" fill="#313131"/>
<path d="M30.0606 152C29.5151 152 28.5545 152.677 28.101 152.98C27.6474 153.283 27.3299 153.456 27.1211 153.96C26.9124 154.464 27.0147 155.384 27.1211 155.919C27.2275 156.454 27.7153 156.513 28.101 156.899C28.4866 157.285 28.5458 157.772 29.0808 157.879C29.6157 157.985 30.5365 158.088 31.0404 157.879C31.5443 157.67 31.7172 157.353 32.0202 156.899C32.3232 156.446 33 155.485 33 154.939C33 154.208 32.5374 153.497 32.0202 152.98C31.503 152.463 30.792 152 30.0606 152Z" fill="#313131"/>
<path d="M30.0606 178C29.5151 178 28.5545 178.677 28.101 178.98C27.6474 179.283 27.3299 179.456 27.1211 179.96C26.9124 180.464 27.0147 181.384 27.1211 181.919C27.2275 182.454 27.7153 182.513 28.101 182.899C28.4866 183.285 28.5458 183.772 29.0808 183.879C29.6157 183.985 30.5365 184.088 31.0404 183.879C31.5443 183.67 31.7172 183.353 32.0202 182.899C32.3232 182.446 33 181.485 33 180.939C33 180.208 32.5374 179.497 32.0202 178.98C31.503 178.463 30.792 178 30.0606 178Z" fill="#313131"/>
<path d="M55.0606 0C54.5151 0 53.5545 0.676788 53.101 0.97981C52.6474 1.28283 52.3299 1.45571 52.1211 1.95962C51.9124 2.46353 52.0147 3.38429 52.1211 3.91924C52.2275 4.45418 52.7153 4.51337 53.101 4.89905C53.4866 5.28472 53.5458 5.77245 54.0808 5.87886C54.6157 5.98527 55.5365 6.08758 56.0404 5.87886C56.5443 5.67013 56.7172 5.35255 57.0202 4.89905C57.3232 4.44554 58 3.48485 58 2.93943C58 2.20804 57.5374 1.49698 57.0202 0.97981C56.503 0.462637 55.792 0 55.0606 0Z" fill="#313131"/>
<path d="M55.0606 25C54.5151 25 53.5545 25.6768 53.101 25.9798C52.6474 26.2828 52.3299 26.4557 52.1211 26.9596C51.9124 27.4635 52.0147 28.3843 52.1211 28.9192C52.2275 29.4542 52.7153 29.5134 53.101 29.899C53.4866 30.2847 53.5458 30.7725 54.0808 30.8789C54.6157 30.9853 55.5365 31.0876 56.0404 30.8789C56.5443 30.6701 56.7172 30.3526 57.0202 29.899C57.3232 29.4455 58 28.4849 58 27.9394C58 27.208 57.5374 26.497 57.0202 25.9798C56.503 25.4626 55.792 25 55.0606 25Z" fill="#313131"/>
<path d="M55.0606 51C54.5151 51 53.5545 51.6768 53.101 51.9798C52.6474 52.2828 52.3299 52.4557 52.1211 52.9596C51.9124 53.4635 52.0147 54.3843 52.1211 54.9192C52.2275 55.4542 52.7153 55.5134 53.101 55.899C53.4866 56.2847 53.5458 56.7725 54.0808 56.8789C54.6157 56.9853 55.5365 57.0876 56.0404 56.8789C56.5443 56.6701 56.7172 56.3526 57.0202 55.899C57.3232 55.4455 58 54.4849 58 53.9394C58 53.208 57.5374 52.497 57.0202 51.9798C56.503 51.4626 55.792 51 55.0606 51Z" fill="#313131"/>
<path d="M55.0606 76C54.5151 76 53.5545 76.6768 53.101 76.9798C52.6474 77.2828 52.3299 77.4557 52.1211 77.9596C51.9124 78.4635 52.0147 79.3843 52.1211 79.9192C52.2275 80.4542 52.7153 80.5134 53.101 80.899C53.4866 81.2847 53.5458 81.7725 54.0808 81.8789C54.6157 81.9853 55.5365 82.0876 56.0404 81.8789C56.5443 81.6701 56.7172 81.3526 57.0202 80.899C57.3232 80.4455 58 79.4849 58 78.9394C58 78.208 57.5374 77.497 57.0202 76.9798C56.503 76.4626 55.792 76 55.0606 76Z" fill="#313131"/>
<path d="M55.0606 102C54.5151 102 53.5545 102.677 53.101 102.98C52.6474 103.283 52.3299 103.456 52.1211 103.96C51.9124 104.464 52.0147 105.384 52.1211 105.919C52.2275 106.454 52.7153 106.513 53.101 106.899C53.4866 107.285 53.5458 107.772 54.0808 107.879C54.6157 107.985 55.5365 108.088 56.0404 107.879C56.5443 107.67 56.7172 107.353 57.0202 106.899C57.3232 106.446 58 105.485 58 104.939C58 104.208 57.5374 103.497 57.0202 102.98C56.503 102.463 55.792 102 55.0606 102Z" fill="#313131"/>
<path d="M55.0606 127C54.5151 127 53.5545 127.677 53.101 127.98C52.6474 128.283 52.3299 128.456 52.1211 128.96C51.9124 129.464 52.0147 130.384 52.1211 130.919C52.2275 131.454 52.7153 131.513 53.101 131.899C53.4866 132.285 53.5458 132.772 54.0808 132.879C54.6157 132.985 55.5365 133.088 56.0404 132.879C56.5443 132.67 56.7172 132.353 57.0202 131.899C57.3232 131.446 58 130.485 58 129.939C58 129.208 57.5374 128.497 57.0202 127.98C56.503 127.463 55.792 127 55.0606 127Z" fill="#313131"/>
<path d="M55.0606 152C54.5151 152 53.5545 152.677 53.101 152.98C52.6474 153.283 52.3299 153.456 52.1211 153.96C51.9124 154.464 52.0147 155.384 52.1211 155.919C52.2275 156.454 52.7153 156.513 53.101 156.899C53.4866 157.285 53.5458 157.772 54.0808 157.879C54.6157 157.985 55.5365 158.088 56.0404 157.879C56.5443 157.67 56.7172 157.353 57.0202 156.899C57.3232 156.446 58 155.485 58 154.939C58 154.208 57.5374 153.497 57.0202 152.98C56.503 152.463 55.792 152 55.0606 152Z" fill="#313131"/>
<path d="M55.0606 178C54.5151 178 53.5545 178.677 53.101 178.98C52.6474 179.283 52.3299 179.456 52.1211 179.96C51.9124 180.464 52.0147 181.384 52.1211 181.919C52.2275 182.454 52.7153 182.513 53.101 182.899C53.4866 183.285 53.5458 183.772 54.0808 183.879C54.6157 183.985 55.5365 184.088 56.0404 183.879C56.5443 183.67 56.7172 183.353 57.0202 182.899C57.3232 182.446 58 181.485 58 180.939C58 180.208 57.5374 179.497 57.0202 178.98C56.503 178.463 55.792 178 55.0606 178Z" fill="#313131"/>
<path d="M81.0606 0C80.5151 0 79.5545 0.676788 79.101 0.97981C78.6474 1.28283 78.3299 1.45571 78.1211 1.95962C77.9124 2.46353 78.0147 3.38429 78.1211 3.91924C78.2275 4.45418 78.7153 4.51337 79.101 4.89905C79.4866 5.28472 79.5458 5.77245 80.0808 5.87886C80.6157 5.98527 81.5365 6.08758 82.0404 5.87886C82.5443 5.67013 82.7172 5.35255 83.0202 4.89905C83.3232 4.44554 84 3.48485 84 2.93943C84 2.20804 83.5374 1.49698 83.0202 0.97981C82.503 0.462637 81.792 0 81.0606 0Z" fill="#313131"/>
<path d="M81.0606 25C80.5151 25 79.5545 25.6768 79.101 25.9798C78.6474 26.2828 78.3299 26.4557 78.1211 26.9596C77.9124 27.4635 78.0147 28.3843 78.1211 28.9192C78.2275 29.4542 78.7153 29.5134 79.101 29.899C79.4866 30.2847 79.5458 30.7725 80.0808 30.8789C80.6157 30.9853 81.5365 31.0876 82.0404 30.8789C82.5443 30.6701 82.7172 30.3526 83.0202 29.899C83.3232 29.4455 84 28.4849 84 27.9394C84 27.208 83.5374 26.497 83.0202 25.9798C82.503 25.4626 81.792 25 81.0606 25Z" fill="#313131"/>
<path d="M81.0606 51C80.5151 51 79.5545 51.6768 79.101 51.9798C78.6474 52.2828 78.3299 52.4557 78.1211 52.9596C77.9124 53.4635 78.0147 54.3843 78.1211 54.9192C78.2275 55.4542 78.7153 55.5134 79.101 55.899C79.4866 56.2847 79.5458 56.7725 80.0808 56.8789C80.6157 56.9853 81.5365 57.0876 82.0404 56.8789C82.5443 56.6701 82.7172 56.3526 83.0202 55.899C83.3232 55.4455 84 54.4849 84 53.9394C84 53.208 83.5374 52.497 83.0202 51.9798C82.503 51.4626 81.792 51 81.0606 51Z" fill="#313131"/>
<path d="M81.0606 76C80.5151 76 79.5545 76.6768 79.101 76.9798C78.6474 77.2828 78.3299 77.4557 78.1211 77.9596C77.9124 78.4635 78.0147 79.3843 78.1211 79.9192C78.2275 80.4542 78.7153 80.5134 79.101 80.899C79.4866 81.2847 79.5458 81.7725 80.0808 81.8789C80.6157 81.9853 81.5365 82.0876 82.0404 81.8789C82.5443 81.6701 82.7172 81.3526 83.0202 80.899C83.3232 80.4455 84 79.4849 84 78.9394C84 78.208 83.5374 77.497 83.0202 76.9798C82.503 76.4626 81.792 76 81.0606 76Z" fill="#313131"/>
<path d="M81.0606 102C80.5151 102 79.5545 102.677 79.101 102.98C78.6474 103.283 78.3299 103.456 78.1211 103.96C77.9124 104.464 78.0147 105.384 78.1211 105.919C78.2275 106.454 78.7153 106.513 79.101 106.899C79.4866 107.285 79.5458 107.772 80.0808 107.879C80.6157 107.985 81.5365 108.088 82.0404 107.879C82.5443 107.67 82.7172 107.353 83.0202 106.899C83.3232 106.446 84 105.485 84 104.939C84 104.208 83.5374 103.497 83.0202 102.98C82.503 102.463 81.792 102 81.0606 102Z" fill="#313131"/>
<path d="M81.0606 127C80.5151 127 79.5545 127.677 79.101 127.98C78.6474 128.283 78.3299 128.456 78.1211 128.96C77.9124 129.464 78.0147 130.384 78.1211 130.919C78.2275 131.454 78.7153 131.513 79.101 131.899C79.4866 132.285 79.5458 132.772 80.0808 132.879C80.6157 132.985 81.5365 133.088 82.0404 132.879C82.5443 132.67 82.7172 132.353 83.0202 131.899C83.3232 131.446 84 130.485 84 129.939C84 129.208 83.5374 128.497 83.0202 127.98C82.503 127.463 81.792 127 81.0606 127Z" fill="#313131"/>
<path d="M81.0606 152C80.5151 152 79.5545 152.677 79.101 152.98C78.6474 153.283 78.3299 153.456 78.1211 153.96C77.9124 154.464 78.0147 155.384 78.1211 155.919C78.2275 156.454 78.7153 156.513 79.101 156.899C79.4866 157.285 79.5458 157.772 80.0808 157.879C80.6157 157.985 81.5365 158.088 82.0404 157.879C82.5443 157.67 82.7172 157.353 83.0202 156.899C83.3232 156.446 84 155.485 84 154.939C84 154.208 83.5374 153.497 83.0202 152.98C82.503 152.463 81.792 152 81.0606 152Z" fill="#313131"/>
<path d="M81.0606 178C80.5151 178 79.5545 178.677 79.101 178.98C78.6474 179.283 78.3299 179.456 78.1211 179.96C77.9124 180.464 78.0147 181.384 78.1211 181.919C78.2275 182.454 78.7153 182.513 79.101 182.899C79.4866 183.285 79.5458 183.772 80.0808 183.879C80.6157 183.985 81.5365 184.088 82.0404 183.879C82.5443 183.67 82.7172 183.353 83.0202 182.899C83.3232 182.446 84 181.485 84 180.939C84 180.208 83.5374 179.497 83.0202 178.98C82.503 178.463 81.792 178 81.0606 178Z" fill="#313131"/>
<path d="M106.061 0C105.515 0 104.554 0.676788 104.101 0.97981C103.647 1.28283 103.33 1.45571 103.121 1.95962C102.912 2.46353 103.015 3.38429 103.121 3.91924C103.228 4.45418 103.715 4.51337 104.101 4.89905C104.487 5.28472 104.546 5.77245 105.081 5.87886C105.616 5.98527 106.536 6.08758 107.04 5.87886C107.544 5.67013 107.717 5.35255 108.02 4.89905C108.323 4.44554 109 3.48485 109 2.93943C109 2.20804 108.537 1.49698 108.02 0.97981C107.503 0.462637 106.792 0 106.061 0Z" fill="#313131"/>
<path d="M106.061 25C105.515 25 104.554 25.6768 104.101 25.9798C103.647 26.2828 103.33 26.4557 103.121 26.9596C102.912 27.4635 103.015 28.3843 103.121 28.9192C103.228 29.4542 103.715 29.5134 104.101 29.899C104.487 30.2847 104.546 30.7725 105.081 30.8789C105.616 30.9853 106.536 31.0876 107.04 30.8789C107.544 30.6701 107.717 30.3526 108.02 29.899C108.323 29.4455 109 28.4849 109 27.9394C109 27.208 108.537 26.497 108.02 25.9798C107.503 25.4626 106.792 25 106.061 25Z" fill="#313131"/>
<path d="M106.061 51C105.515 51 104.554 51.6768 104.101 51.9798C103.647 52.2828 103.33 52.4557 103.121 52.9596C102.912 53.4635 103.015 54.3843 103.121 54.9192C103.228 55.4542 103.715 55.5134 104.101 55.899C104.487 56.2847 104.546 56.7725 105.081 56.8789C105.616 56.9853 106.536 57.0876 107.04 56.8789C107.544 56.6701 107.717 56.3526 108.02 55.899C108.323 55.4455 109 54.4849 109 53.9394C109 53.208 108.537 52.497 108.02 51.9798C107.503 51.4626 106.792 51 106.061 51Z" fill="#313131"/>
<path d="M106.061 76C105.515 76 104.554 76.6768 104.101 76.9798C103.647 77.2828 103.33 77.4557 103.121 77.9596C102.912 78.4635 103.015 79.3843 103.121 79.9192C103.228 80.4542 103.715 80.5134 104.101 80.899C104.487 81.2847 104.546 81.7725 105.081 81.8789C105.616 81.9853 106.536 82.0876 107.04 81.8789C107.544 81.6701 107.717 81.3526 108.02 80.899C108.323 80.4455 109 79.4849 109 78.9394C109 78.208 108.537 77.497 108.02 76.9798C107.503 76.4626 106.792 76 106.061 76Z" fill="#313131"/>
<path d="M106.061 102C105.515 102 104.554 102.677 104.101 102.98C103.647 103.283 103.33 103.456 103.121 103.96C102.912 104.464 103.015 105.384 103.121 105.919C103.228 106.454 103.715 106.513 104.101 106.899C104.487 107.285 104.546 107.772 105.081 107.879C105.616 107.985 106.536 108.088 107.04 107.879C107.544 107.67 107.717 107.353 108.02 106.899C108.323 106.446 109 105.485 109 104.939C109 104.208 108.537 103.497 108.02 102.98C107.503 102.463 106.792 102 106.061 102Z" fill="#313131"/>
<path d="M106.061 127C105.515 127 104.554 127.677 104.101 127.98C103.647 128.283 103.33 128.456 103.121 128.96C102.912 129.464 103.015 130.384 103.121 130.919C103.228 131.454 103.715 131.513 104.101 131.899C104.487 132.285 104.546 132.772 105.081 132.879C105.616 132.985 106.536 133.088 107.04 132.879C107.544 132.67 107.717 132.353 108.02 131.899C108.323 131.446 109 130.485 109 129.939C109 129.208 108.537 128.497 108.02 127.98C107.503 127.463 106.792 127 106.061 127Z" fill="#313131"/>
<path d="M106.061 152C105.515 152 104.554 152.677 104.101 152.98C103.647 153.283 103.33 153.456 103.121 153.96C102.912 154.464 103.015 155.384 103.121 155.919C103.228 156.454 103.715 156.513 104.101 156.899C104.487 157.285 104.546 157.772 105.081 157.879C105.616 157.985 106.536 158.088 107.04 157.879C107.544 157.67 107.717 157.353 108.02 156.899C108.323 156.446 109 155.485 109 154.939C109 154.208 108.537 153.497 108.02 152.98C107.503 152.463 106.792 152 106.061 152Z" fill="#313131"/>
<path d="M106.061 178C105.515 178 104.554 178.677 104.101 178.98C103.647 179.283 103.33 179.456 103.121 179.96C102.912 180.464 103.015 181.384 103.121 181.919C103.228 182.454 103.715 182.513 104.101 182.899C104.487 183.285 104.546 183.772 105.081 183.879C105.616 183.985 106.536 184.088 107.04 183.879C107.544 183.67 107.717 183.353 108.02 182.899C108.323 182.446 109 181.485 109 180.939C109 180.208 108.537 179.497 108.02 178.98C107.503 178.463 106.792 178 106.061 178Z" fill="#313131"/>
<path d="M132.061 0C131.515 0 130.554 0.676788 130.101 0.97981C129.647 1.28283 129.33 1.45571 129.121 1.95962C128.912 2.46353 129.015 3.38429 129.121 3.91924C129.228 4.45418 129.715 4.51337 130.101 4.89905C130.487 5.28472 130.546 5.77245 131.081 5.87886C131.616 5.98527 132.536 6.08758 133.04 5.87886C133.544 5.67013 133.717 5.35255 134.02 4.89905C134.323 4.44554 135 3.48485 135 2.93943C135 2.20804 134.537 1.49698 134.02 0.97981C133.503 0.462637 132.792 0 132.061 0Z" fill="#313131"/>
<path d="M132.061 25C131.515 25 130.554 25.6768 130.101 25.9798C129.647 26.2828 129.33 26.4557 129.121 26.9596C128.912 27.4635 129.015 28.3843 129.121 28.9192C129.228 29.4542 129.715 29.5134 130.101 29.899C130.487 30.2847 130.546 30.7725 131.081 30.8789C131.616 30.9853 132.536 31.0876 133.04 30.8789C133.544 30.6701 133.717 30.3526 134.02 29.899C134.323 29.4455 135 28.4849 135 27.9394C135 27.208 134.537 26.497 134.02 25.9798C133.503 25.4626 132.792 25 132.061 25Z" fill="#313131"/>
<path d="M132.061 51C131.515 51 130.554 51.6768 130.101 51.9798C129.647 52.2828 129.33 52.4557 129.121 52.9596C128.912 53.4635 129.015 54.3843 129.121 54.9192C129.228 55.4542 129.715 55.5134 130.101 55.899C130.487 56.2847 130.546 56.7725 131.081 56.8789C131.616 56.9853 132.536 57.0876 133.04 56.8789C133.544 56.6701 133.717 56.3526 134.02 55.899C134.323 55.4455 135 54.4849 135 53.9394C135 53.208 134.537 52.497 134.02 51.9798C133.503 51.4626 132.792 51 132.061 51Z" fill="#313131"/>
<path d="M132.061 76C131.515 76 130.554 76.6768 130.101 76.9798C129.647 77.2828 129.33 77.4557 129.121 77.9596C128.912 78.4635 129.015 79.3843 129.121 79.9192C129.228 80.4542 129.715 80.5134 130.101 80.899C130.487 81.2847 130.546 81.7725 131.081 81.8789C131.616 81.9853 132.536 82.0876 133.04 81.8789C133.544 81.6701 133.717 81.3526 134.02 80.899C134.323 80.4455 135 79.4849 135 78.9394C135 78.208 134.537 77.497 134.02 76.9798C133.503 76.4626 132.792 76 132.061 76Z" fill="#313131"/>
<path d="M132.061 102C131.515 102 130.554 102.677 130.101 102.98C129.647 103.283 129.33 103.456 129.121 103.96C128.912 104.464 129.015 105.384 129.121 105.919C129.228 106.454 129.715 106.513 130.101 106.899C130.487 107.285 130.546 107.772 131.081 107.879C131.616 107.985 132.536 108.088 133.04 107.879C133.544 107.67 133.717 107.353 134.02 106.899C134.323 106.446 135 105.485 135 104.939C135 104.208 134.537 103.497 134.02 102.98C133.503 102.463 132.792 102 132.061 102Z" fill="#313131"/>
<path d="M132.061 127C131.515 127 130.554 127.677 130.101 127.98C129.647 128.283 129.33 128.456 129.121 128.96C128.912 129.464 129.015 130.384 129.121 130.919C129.228 131.454 129.715 131.513 130.101 131.899C130.487 132.285 130.546 132.772 131.081 132.879C131.616 132.985 132.536 133.088 133.04 132.879C133.544 132.67 133.717 132.353 134.02 131.899C134.323 131.446 135 130.485 135 129.939C135 129.208 134.537 128.497 134.02 127.98C133.503 127.463 132.792 127 132.061 127Z" fill="#313131"/>
<path d="M132.061 152C131.515 152 130.554 152.677 130.101 152.98C129.647 153.283 129.33 153.456 129.121 153.96C128.912 154.464 129.015 155.384 129.121 155.919C129.228 156.454 129.715 156.513 130.101 156.899C130.487 157.285 130.546 157.772 131.081 157.879C131.616 157.985 132.536 158.088 133.04 157.879C133.544 157.67 133.717 157.353 134.02 156.899C134.323 156.446 135 155.485 135 154.939C135 154.208 134.537 153.497 134.02 152.98C133.503 152.463 132.792 152 132.061 152Z" fill="#313131"/>
<path d="M132.061 178C131.515 178 130.554 178.677 130.101 178.98C129.647 179.283 129.33 179.456 129.121 179.96C128.912 180.464 129.015 181.384 129.121 181.919C129.228 182.454 129.715 182.513 130.101 182.899C130.487 183.285 130.546 183.772 131.081 183.879C131.616 183.985 132.536 184.088 133.04 183.879C133.544 183.67 133.717 183.353 134.02 182.899C134.323 182.446 135 181.485 135 180.939C135 180.208 134.537 179.497 134.02 178.98C133.503 178.463 132.792 178 132.061 178Z" fill="#313131"/>
</svg>
