<svg width="91" height="184" viewBox="0 0 91 184" fill="none" xmlns="http://www.w3.org/2000/svg">
<path d="M3.06057 0C2.51515 0 1.55445 0.676788 1.10095 0.97981C0.64745 1.28283 0.329864 1.45571 0.121141 1.95962C-0.0875827 2.46353 0.0147345 3.38429 0.121141 3.91924C0.227547 4.45418 0.71528 4.51337 1.10095 4.89905C1.48662 5.28472 1.54582 5.77245 2.08076 5.87886C2.6157 5.98527 3.53648 6.08758 4.04038 5.87886C4.54428 5.67013 4.71717 5.35255 5.02019 4.89905C5.32321 4.44554 6 3.48485 6 2.93943C6 2.20804 5.53736 1.49698 5.02019 0.97981C4.50302 0.462637 3.79196 0 3.06057 0Z" fill="#313131"/>
<path d="M3.06057 25C2.51515 25 1.55445 25.6768 1.10095 25.9798C0.64745 26.2828 0.329864 26.4557 0.121141 26.9596C-0.0875827 27.4635 0.0147345 28.3843 0.121141 28.9192C0.227547 29.4542 0.71528 29.5134 1.10095 29.899C1.48662 30.2847 1.54582 30.7725 2.08076 30.8789C2.6157 30.9853 3.53648 31.0876 4.04038 30.8789C4.54428 30.6701 4.71717 30.3526 5.02019 29.899C5.32321 29.4455 6 28.4849 6 27.9394C6 27.208 5.53736 26.497 5.02019 25.9798C4.50302 25.4626 3.79196 25 3.06057 25Z" fill="#313131"/>
<path d="M3.06057 51C2.51515 51 1.55445 51.6768 1.10095 51.9798C0.64745 52.2828 0.329864 52.4557 0.121141 52.9596C-0.0875827 53.4635 0.0147345 54.3843 0.121141 54.9192C0.227547 55.4542 0.71528 55.5134 1.10095 55.899C1.48662 56.2847 1.54582 56.7725 2.08076 56.8789C2.6157 56.9853 3.53648 57.0876 4.04038 56.8789C4.54428 56.6701 4.71717 56.3526 5.02019 55.899C5.32321 55.4455 6 54.4849 6 53.9394C6 53.208 5.53736 52.497 5.02019 51.9798C4.50302 51.4626 3.79196 51 3.06057 51Z" fill="#313131"/>
<path d="M3.06057 76C2.51515 76 1.55445 76.6768 1.10095 76.9798C0.64745 77.2828 0.329864 77.4557 0.121141 77.9596C-0.0875827 78.4635 0.0147345 79.3843 0.121141 79.9192C0.227547 80.4542 0.71528 80.5134 1.10095 80.899C1.48662 81.2847 1.54582 81.7725 2.08076 81.8789C2.6157 81.9853 3.53648 82.0876 4.04038 81.8789C4.54428 81.6701 4.71717 81.3526 5.02019 80.899C5.32321 80.4455 6 79.4849 6 78.9394C6 78.208 5.53736 77.497 5.02019 76.9798C4.50302 76.4626 3.79196 76 3.06057 76Z" fill="#313131"/>
<path d="M3.06057 102C2.51515 102 1.55445 102.677 1.10095 102.98C0.64745 103.283 0.329864 103.456 0.121141 103.96C-0.0875827 104.464 0.0147345 105.384 0.121141 105.919C0.227547 106.454 0.71528 106.513 1.10095 106.899C1.48662 107.285 1.54582 107.772 2.08076 107.879C2.6157 107.985 3.53648 108.088 4.04038 107.879C4.54428 107.67 4.71717 107.353 5.02019 106.899C5.32321 106.446 6 105.485 6 104.939C6 104.208 5.53736 103.497 5.02019 102.98C4.50302 102.463 3.79196 102 3.06057 102Z" fill="#313131"/>
<path d="M3.06057 127C2.51515 127 1.55445 127.677 1.10095 127.98C0.64745 128.283 0.329864 128.456 0.121141 128.96C-0.0875827 129.464 0.0147345 130.384 0.121141 130.919C0.227547 131.454 0.71528 131.513 1.10095 131.899C1.48662 132.285 1.54582 132.772 2.08076 132.879C2.6157 132.985 3.53648 133.088 4.04038 132.879C4.54428 132.67 4.71717 132.353 5.02019 131.899C5.32321 131.446 6 130.485 6 129.939C6 129.208 5.53736 128.497 5.02019 127.98C4.50302 127.463 3.79196 127 3.06057 127Z" fill="#313131"/>
<path d="M3.06057 152C2.51515 152 1.55445 152.677 1.10095 152.98C0.64745 153.283 0.329864 153.456 0.121141 153.96C-0.0875827 154.464 0.0147345 155.384 0.121141 155.919C0.227547 156.454 0.71528 156.513 1.10095 156.899C1.48662 157.285 1.54582 157.772 2.08076 157.879C2.6157 157.985 3.53648 158.088 4.04038 157.879C4.54428 157.67 4.71717 157.353 5.02019 156.899C5.32321 156.446 6 155.485 6 154.939C6 154.208 5.53736 153.497 5.02019 152.98C4.50302 152.463 3.79196 152 3.06057 152Z" fill="#313131"/>
<path d="M3.06057 178C2.51515 178 1.55445 178.677 1.10095 178.98C0.64745 179.283 0.329864 179.456 0.121141 179.96C-0.0875827 180.464 0.0147345 181.384 0.121141 181.919C0.227547 182.454 0.71528 182.513 1.10095 182.899C1.48662 183.285 1.54582 183.772 2.08076 183.879C2.6157 183.985 3.53648 184.088 4.04038 183.879C4.54428 183.67 4.71717 183.353 5.02019 182.899C5.32321 182.446 6 181.485 6 180.939C6 180.208 5.53736 179.497 5.02019 178.98C4.50302 178.463 3.79196 178 3.06057 178Z" fill="#313131"/>
<path d="M28.0606 0C27.5151 0 26.5545 0.676788 26.101 0.97981C25.6474 1.28283 25.3299 1.45571 25.1211 1.95962C24.9124 2.46353 25.0147 3.38429 25.1211 3.91924C25.2275 4.45418 25.7153 4.51337 26.101 4.89905C26.4866 5.28472 26.5458 5.77245 27.0808 5.87886C27.6157 5.98527 28.5365 6.08758 29.0404 5.87886C29.5443 5.67013 29.7172 5.35255 30.0202 4.89905C30.3232 4.44554 31 3.48485 31 2.93943C31 2.20804 30.5374 1.49698 30.0202 0.97981C29.503 0.462637 28.792 0 28.0606 0Z" fill="#313131"/>
<path d="M28.0606 25C27.5151 25 26.5545 25.6768 26.101 25.9798C25.6474 26.2828 25.3299 26.4557 25.1211 26.9596C24.9124 27.4635 25.0147 28.3843 25.1211 28.9192C25.2275 29.4542 25.7153 29.5134 26.101 29.899C26.4866 30.2847 26.5458 30.7725 27.0808 30.8789C27.6157 30.9853 28.5365 31.0876 29.0404 30.8789C29.5443 30.6701 29.7172 30.3526 30.0202 29.899C30.3232 29.4455 31 28.4849 31 27.9394C31 27.208 30.5374 26.497 30.0202 25.9798C29.503 25.4626 28.792 25 28.0606 25Z" fill="#313131"/>
<path d="M28.0606 51C27.5151 51 26.5545 51.6768 26.101 51.9798C25.6474 52.2828 25.3299 52.4557 25.1211 52.9596C24.9124 53.4635 25.0147 54.3843 25.1211 54.9192C25.2275 55.4542 25.7153 55.5134 26.101 55.899C26.4866 56.2847 26.5458 56.7725 27.0808 56.8789C27.6157 56.9853 28.5365 57.0876 29.0404 56.8789C29.5443 56.6701 29.7172 56.3526 30.0202 55.899C30.3232 55.4455 31 54.4849 31 53.9394C31 53.208 30.5374 52.497 30.0202 51.9798C29.503 51.4626 28.792 51 28.0606 51Z" fill="#313131"/>
<path d="M28.0606 76C27.5151 76 26.5545 76.6768 26.101 76.9798C25.6474 77.2828 25.3299 77.4557 25.1211 77.9596C24.9124 78.4635 25.0147 79.3843 25.1211 79.9192C25.2275 80.4542 25.7153 80.5134 26.101 80.899C26.4866 81.2847 26.5458 81.7725 27.0808 81.8789C27.6157 81.9853 28.5365 82.0876 29.0404 81.8789C29.5443 81.6701 29.7172 81.3526 30.0202 80.899C30.3232 80.4455 31 79.4849 31 78.9394C31 78.208 30.5374 77.497 30.0202 76.9798C29.503 76.4626 28.792 76 28.0606 76Z" fill="#313131"/>
<path d="M28.0606 102C27.5151 102 26.5545 102.677 26.101 102.98C25.6474 103.283 25.3299 103.456 25.1211 103.96C24.9124 104.464 25.0147 105.384 25.1211 105.919C25.2275 106.454 25.7153 106.513 26.101 106.899C26.4866 107.285 26.5458 107.772 27.0808 107.879C27.6157 107.985 28.5365 108.088 29.0404 107.879C29.5443 107.67 29.7172 107.353 30.0202 106.899C30.3232 106.446 31 105.485 31 104.939C31 104.208 30.5374 103.497 30.0202 102.98C29.503 102.463 28.792 102 28.0606 102Z" fill="#313131"/>
<path d="M28.0606 127C27.5151 127 26.5545 127.677 26.101 127.98C25.6474 128.283 25.3299 128.456 25.1211 128.96C24.9124 129.464 25.0147 130.384 25.1211 130.919C25.2275 131.454 25.7153 131.513 26.101 131.899C26.4866 132.285 26.5458 132.772 27.0808 132.879C27.6157 132.985 28.5365 133.088 29.0404 132.879C29.5443 132.67 29.7172 132.353 30.0202 131.899C30.3232 131.446 31 130.485 31 129.939C31 129.208 30.5374 128.497 30.0202 127.98C29.503 127.463 28.792 127 28.0606 127Z" fill="#313131"/>
<path d="M28.0606 152C27.5151 152 26.5545 152.677 26.101 152.98C25.6474 153.283 25.3299 153.456 25.1211 153.96C24.9124 154.464 25.0147 155.384 25.1211 155.919C25.2275 156.454 25.7153 156.513 26.101 156.899C26.4866 157.285 26.5458 157.772 27.0808 157.879C27.6157 157.985 28.5365 158.088 29.0404 157.879C29.5443 157.67 29.7172 157.353 30.0202 156.899C30.3232 156.446 31 155.485 31 154.939C31 154.208 30.5374 153.497 30.0202 152.98C29.503 152.463 28.792 152 28.0606 152Z" fill="#313131"/>
<path d="M28.0606 178C27.5151 178 26.5545 178.677 26.101 178.98C25.6474 179.283 25.3299 179.456 25.1211 179.96C24.9124 180.464 25.0147 181.384 25.1211 181.919C25.2275 182.454 25.7153 182.513 26.101 182.899C26.4866 183.285 26.5458 183.772 27.0808 183.879C27.6157 183.985 28.5365 184.088 29.0404 183.879C29.5443 183.67 29.7172 183.353 30.0202 182.899C30.3232 182.446 31 181.485 31 180.939C31 180.208 30.5374 179.497 30.0202 178.98C29.503 178.463 28.792 178 28.0606 178Z" fill="#313131"/>
<path d="M54.0606 0C53.5151 0 52.5545 0.676788 52.101 0.97981C51.6474 1.28283 51.3299 1.45571 51.1211 1.95962C50.9124 2.46353 51.0147 3.38429 51.1211 3.91924C51.2275 4.45418 51.7153 4.51337 52.101 4.89905C52.4866 5.28472 52.5458 5.77245 53.0808 5.87886C53.6157 5.98527 54.5365 6.08758 55.0404 5.87886C55.5443 5.67013 55.7172 5.35255 56.0202 4.89905C56.3232 4.44554 57 3.48485 57 2.93943C57 2.20804 56.5374 1.49698 56.0202 0.97981C55.503 0.462637 54.792 0 54.0606 0Z" fill="#313131"/>
<path d="M54.0606 25C53.5151 25 52.5545 25.6768 52.101 25.9798C51.6474 26.2828 51.3299 26.4557 51.1211 26.9596C50.9124 27.4635 51.0147 28.3843 51.1211 28.9192C51.2275 29.4542 51.7153 29.5134 52.101 29.899C52.4866 30.2847 52.5458 30.7725 53.0808 30.8789C53.6157 30.9853 54.5365 31.0876 55.0404 30.8789C55.5443 30.6701 55.7172 30.3526 56.0202 29.899C56.3232 29.4455 57 28.4849 57 27.9394C57 27.208 56.5374 26.497 56.0202 25.9798C55.503 25.4626 54.792 25 54.0606 25Z" fill="#313131"/>
<path d="M54.0606 51C53.5151 51 52.5545 51.6768 52.101 51.9798C51.6474 52.2828 51.3299 52.4557 51.1211 52.9596C50.9124 53.4635 51.0147 54.3843 51.1211 54.9192C51.2275 55.4542 51.7153 55.5134 52.101 55.899C52.4866 56.2847 52.5458 56.7725 53.0808 56.8789C53.6157 56.9853 54.5365 57.0876 55.0404 56.8789C55.5443 56.6701 55.7172 56.3526 56.0202 55.899C56.3232 55.4455 57 54.4849 57 53.9394C57 53.208 56.5374 52.497 56.0202 51.9798C55.503 51.4626 54.792 51 54.0606 51Z" fill="#313131"/>
<path d="M54.0606 76C53.5151 76 52.5545 76.6768 52.101 76.9798C51.6474 77.2828 51.3299 77.4557 51.1211 77.9596C50.9124 78.4635 51.0147 79.3843 51.1211 79.9192C51.2275 80.4542 51.7153 80.5134 52.101 80.899C52.4866 81.2847 52.5458 81.7725 53.0808 81.8789C53.6157 81.9853 54.5365 82.0876 55.0404 81.8789C55.5443 81.6701 55.7172 81.3526 56.0202 80.899C56.3232 80.4455 57 79.4849 57 78.9394C57 78.208 56.5374 77.497 56.0202 76.9798C55.503 76.4626 54.792 76 54.0606 76Z" fill="#313131"/>
<path d="M54.0606 102C53.5151 102 52.5545 102.677 52.101 102.98C51.6474 103.283 51.3299 103.456 51.1211 103.96C50.9124 104.464 51.0147 105.384 51.1211 105.919C51.2275 106.454 51.7153 106.513 52.101 106.899C52.4866 107.285 52.5458 107.772 53.0808 107.879C53.6157 107.985 54.5365 108.088 55.0404 107.879C55.5443 107.67 55.7172 107.353 56.0202 106.899C56.3232 106.446 57 105.485 57 104.939C57 104.208 56.5374 103.497 56.0202 102.98C55.503 102.463 54.792 102 54.0606 102Z" fill="#313131"/>
<path d="M54.0606 127C53.5151 127 52.5545 127.677 52.101 127.98C51.6474 128.283 51.3299 128.456 51.1211 128.96C50.9124 129.464 51.0147 130.384 51.1211 130.919C51.2275 131.454 51.7153 131.513 52.101 131.899C52.4866 132.285 52.5458 132.772 53.0808 132.879C53.6157 132.985 54.5365 133.088 55.0404 132.879C55.5443 132.67 55.7172 132.353 56.0202 131.899C56.3232 131.446 57 130.485 57 129.939C57 129.208 56.5374 128.497 56.0202 127.98C55.503 127.463 54.792 127 54.0606 127Z" fill="#313131"/>
<path d="M54.0606 152C53.5151 152 52.5545 152.677 52.101 152.98C51.6474 153.283 51.3299 153.456 51.1211 153.96C50.9124 154.464 51.0147 155.384 51.1211 155.919C51.2275 156.454 51.7153 156.513 52.101 156.899C52.4866 157.285 52.5458 157.772 53.0808 157.879C53.6157 157.985 54.5365 158.088 55.0404 157.879C55.5443 157.67 55.7172 157.353 56.0202 156.899C56.3232 156.446 57 155.485 57 154.939C57 154.208 56.5374 153.497 56.0202 152.98C55.503 152.463 54.792 152 54.0606 152Z" fill="#313131"/>
<path d="M54.0606 178C53.5151 178 52.5545 178.677 52.101 178.98C51.6474 179.283 51.3299 179.456 51.1211 179.96C50.9124 180.464 51.0147 181.384 51.1211 181.919C51.2275 182.454 51.7153 182.513 52.101 182.899C52.4866 183.285 52.5458 183.772 53.0808 183.879C53.6157 183.985 54.5365 184.088 55.0404 183.879C55.5443 183.67 55.7172 183.353 56.0202 182.899C56.3232 182.446 57 181.485 57 180.939C57 180.208 56.5374 179.497 56.0202 178.98C55.503 178.463 54.792 178 54.0606 178Z" fill="#313131"/>
<path d="M79.0606 0C78.5151 0 77.5545 0.676788 77.101 0.97981C76.6474 1.28283 76.3299 1.45571 76.1211 1.95962C75.9124 2.46353 76.0147 3.38429 76.1211 3.91924C76.2275 4.45418 76.7153 4.51337 77.101 4.89905C77.4866 5.28472 77.5458 5.77245 78.0808 5.87886C78.6157 5.98527 79.5365 6.08758 80.0404 5.87886C80.5443 5.67013 80.7172 5.35255 81.0202 4.89905C81.3232 4.44554 82 3.48485 82 2.93943C82 2.20804 81.5374 1.49698 81.0202 0.97981C80.503 0.462637 79.792 0 79.0606 0Z" fill="#313131"/>
<path d="M79.0606 25C78.5151 25 77.5545 25.6768 77.101 25.9798C76.6474 26.2828 76.3299 26.4557 76.1211 26.9596C75.9124 27.4635 76.0147 28.3843 76.1211 28.9192C76.2275 29.4542 76.7153 29.5134 77.101 29.899C77.4866 30.2847 77.5458 30.7725 78.0808 30.8789C78.6157 30.9853 79.5365 31.0876 80.0404 30.8789C80.5443 30.6701 80.7172 30.3526 81.0202 29.899C81.3232 29.4455 82 28.4849 82 27.9394C82 27.208 81.5374 26.497 81.0202 25.9798C80.503 25.4626 79.792 25 79.0606 25Z" fill="#313131"/>
<path d="M79.0606 51C78.5151 51 77.5545 51.6768 77.101 51.9798C76.6474 52.2828 76.3299 52.4557 76.1211 52.9596C75.9124 53.4635 76.0147 54.3843 76.1211 54.9192C76.2275 55.4542 76.7153 55.5134 77.101 55.899C77.4866 56.2847 77.5458 56.7725 78.0808 56.8789C78.6157 56.9853 79.5365 57.0876 80.0404 56.8789C80.5443 56.6701 80.7172 56.3526 81.0202 55.899C81.3232 55.4455 82 54.4849 82 53.9394C82 53.208 81.5374 52.497 81.0202 51.9798C80.503 51.4626 79.792 51 79.0606 51Z" fill="#313131"/>
<path d="M79.0606 76C78.5151 76 77.5545 76.6768 77.101 76.9798C76.6474 77.2828 76.3299 77.4557 76.1211 77.9596C75.9124 78.4635 76.0147 79.3843 76.1211 79.9192C76.2275 80.4542 76.7153 80.5134 77.101 80.899C77.4866 81.2847 77.5458 81.7725 78.0808 81.8789C78.6157 81.9853 79.5365 82.0876 80.0404 81.8789C80.5443 81.6701 80.7172 81.3526 81.0202 80.899C81.3232 80.4455 82 79.4849 82 78.9394C82 78.208 81.5374 77.497 81.0202 76.9798C80.503 76.4626 79.792 76 79.0606 76Z" fill="#313131"/>
<path d="M79.0606 102C78.5151 102 77.5545 102.677 77.101 102.98C76.6474 103.283 76.3299 103.456 76.1211 103.96C75.9124 104.464 76.0147 105.384 76.1211 105.919C76.2275 106.454 76.7153 106.513 77.101 106.899C77.4866 107.285 77.5458 107.772 78.0808 107.879C78.6157 107.985 79.5365 108.088 80.0404 107.879C80.5443 107.67 80.7172 107.353 81.0202 106.899C81.3232 106.446 82 105.485 82 104.939C82 104.208 81.5374 103.497 81.0202 102.98C80.503 102.463 79.792 102 79.0606 102Z" fill="#313131"/>
<path d="M79.0606 127C78.5151 127 77.5545 127.677 77.101 127.98C76.6474 128.283 76.3299 128.456 76.1211 128.96C75.9124 129.464 76.0147 130.384 76.1211 130.919C76.2275 131.454 76.7153 131.513 77.101 131.899C77.4866 132.285 77.5458 132.772 78.0808 132.879C78.6157 132.985 79.5365 133.088 80.0404 132.879C80.5443 132.67 80.7172 132.353 81.0202 131.899C81.3232 131.446 82 130.485 82 129.939C82 129.208 81.5374 128.497 81.0202 127.98C80.503 127.463 79.792 127 79.0606 127Z" fill="#313131"/>
<path d="M79.0606 152C78.5151 152 77.5545 152.677 77.101 152.98C76.6474 153.283 76.3299 153.456 76.1211 153.96C75.9124 154.464 76.0147 155.384 76.1211 155.919C76.2275 156.454 76.7153 156.513 77.101 156.899C77.4866 157.285 77.5458 157.772 78.0808 157.879C78.6157 157.985 79.5365 158.088 80.0404 157.879C80.5443 157.67 80.7172 157.353 81.0202 156.899C81.3232 156.446 82 155.485 82 154.939C82 154.208 81.5374 153.497 81.0202 152.98C80.503 152.463 79.792 152 79.0606 152Z" fill="#313131"/>
<path d="M79.0606 178C78.5151 178 77.5545 178.677 77.101 178.98C76.6474 179.283 76.3299 179.456 76.1211 179.96C75.9124 180.464 76.0147 181.384 76.1211 181.919C76.2275 182.454 76.7153 182.513 77.101 182.899C77.4866 183.285 77.5458 183.772 78.0808 183.879C78.6157 183.985 79.5365 184.088 80.0404 183.879C80.5443 183.67 80.7172 183.353 81.0202 182.899C81.3232 182.446 82 181.485 82 180.939C82 180.208 81.5374 179.497 81.0202 178.98C80.503 178.463 79.792 178 79.0606 178Z" fill="#313131"/>
</svg>
