<svg width="94" height="103" viewBox="0 0 94 103" fill="none" xmlns="http://www.w3.org/2000/svg">
<path d="M64.6464 100.354L64.7929 100.5H65H91H92.1702L91.3613 99.6544L69.6993 77.0078L83.3536 63.3536L83.5 63.2071V63V38V36.7929L82.6464 37.6464L57 63.2929L44.7071 51L47.3265 48.3806C56.4407 41.6942 61.5 34.5131 61.5 26C61.5 18.5713 58.7061 12.3702 53.3326 7.62667C48.0515 2.88433 41.0878 0.5 33 0.5C25.6163 0.5 19.3023 2.8975 13.6786 7.617L13.6786 7.61699L13.6755 7.61963C8.09644 12.3797 5.5 19.0485 5.5 27C5.5 33.6408 8.86849 39.8955 15.5837 47.2853L16.3641 48.8462C10.8873 52.8853 7.28936 56.7397 4.58639 60.7191L4.58498 60.7212C1.89198 64.7293 0.5 69.3525 0.5 75C0.5 82.2417 3.19866 88.8852 8.64578 94.3529L8.64573 94.3529L8.65181 94.3588C14.2094 99.7514 21.8203 102.5 31 102.5C40.5205 102.5 48.6553 99.1122 56.0032 91.7103L64.6464 100.354ZM30.416 34.7226L30.3926 34.6875L30.3636 34.6568C27.1003 31.1992 25.5 28.6129 25.5 26C25.5 23.4692 26.841 21.6944 28.3315 20.3743L28.3329 20.3731C29.1344 19.6579 29.7681 19.2009 30.4542 18.9148C31.1355 18.6307 31.9059 18.5 33 18.5C35.3142 18.5 37.1531 18.8546 38.6458 20.3529L38.6508 20.3579L38.656 20.3629C40.2392 21.8637 41.5 23.9147 41.5 26C41.5 29.2118 39.3953 31.8859 35.704 34.597L35.7 34.6L32.1228 37.2829L30.416 34.7226ZM43.3088 77.9938C39.4041 81.934 35.1849 83.5 31 83.5C29.5604 83.5 28.3805 83.2614 27.3283 82.7946C26.2756 82.3277 25.3253 81.6212 24.3583 80.6512C22.5263 78.7231 21.5 76.4899 21.5 74C21.5 69.9721 24.2051 66.2067 28.9394 62.6664L43.3088 77.9938Z" stroke="#313131"/>
</svg>
