<svg width="70" height="19" viewBox="0 0 70 19" fill="none" xmlns="http://www.w3.org/2000/svg">
<path d="M3 18.8902H0V0.994219H11V3.97688H3V7.95375H10V11.9306H3V18.8902Z" fill="white"/>
<path d="M16 18.8902H12V5.96531H16V18.8902ZM12 1.98844C12 1.42824 12.598 1.38965 13 0.994219C13.402 0.582309 13.4304 0 14 0C14.5696 0 14.598 0.598785 15 0.994219C15.402 1.38965 16 1.41177 16 1.98844C16 2.53216 15.402 3.58144 15 3.97688C14.598 4.37231 14.5696 3.97688 14 3.97688C13.4304 3.97688 13.402 4.37231 13 3.97688C12.598 3.58144 12 2.53216 12 1.98844Z" fill="white"/>
<path d="M22 1.98844V5.96531H24V8.94797H22V13.9191C22 14.4298 21.7655 14.6991 22 14.9133C22.2345 15.1275 22.4974 15.9075 23 15.9075C23.4523 15.9075 23.7655 15.9734 24 15.9075V17.8959C23.5142 18.0937 22.7706 18.8902 22 18.8902C20.7939 18.8902 20.7036 18.555 20 17.8959C19.2964 17.2204 19 16.0831 19 14.9133V8.94797H16V5.96531H17C17.6198 5.96531 17.6817 6.31132 18 5.96531C18.335 5.60283 19 4.55355 19 3.97688V1.98844H22Z" fill="white"/>
<path d="M29 10.9364V18.8902H25V5.96531H29V7.95375C29.3518 7.3606 29.3467 6.27836 30 5.96531C30.6533 5.65226 31.2797 5.96531 32 5.96531C33.4574 5.96531 35.2462 6.05333 36 6.95953C36.7706 7.84926 37 9.51944 37 10.9364V18.8902H33V10.9364C33 10.2114 33.3853 10.387 33 9.94219C32.6315 9.49733 31.7706 8.94797 31 8.94797C30.2964 8.94797 29.4188 9.46437 29 9.94219C28.5812 10.42 29 10.2114 29 10.9364Z" fill="white"/>
<path d="M41 10.9364H47C46.9665 10.2609 46.4691 9.40931 46 8.94797C45.5477 8.48663 44.8878 8.94797 44 8.94797C43.1959 8.94797 42.5026 8.45368 42 8.94797C41.4974 9.44226 41.0335 10.3268 41 10.9364ZM47 13.9191L50 14.9133C49.665 16.0337 48.9884 17.171 48 17.8959C47.0284 18.6209 45.4574 18.8902 44 18.8902C42.2243 18.8902 41.2396 18.0715 40 16.9017C38.7604 15.7154 38 13.9078 38 11.9306C38 10.0523 38.7939 9.14005 40 7.95375C41.2061 6.75098 42.3583 5.96531 44 5.96531C45.9097 5.96531 46.9279 6.83336 48 7.95375C49.0889 9.07414 50 9.96994 50 11.9306C50 12.0624 50.0168 12.7601 50 12.9248C50 13.0896 50 12.826 50 12.9248H41C41.0335 13.7157 41.3969 14.386 42 14.9133C42.6031 15.4405 43.1624 15.9075 44 15.9075C45.4239 15.9075 46.5477 15.1548 47 13.9191Z" fill="white"/>
<path d="M50 14.9133H53C53.0335 15.4405 52.6147 15.545 53 15.9075C53.402 16.2535 54.3132 15.9075 55 15.9075C55.5193 15.9075 55.7152 16.1382 56 15.9075C56.2848 15.6768 57 15.2593 57 14.9133C57 14.3037 55.8878 14.1003 55 13.9191H54C52.8441 13.6719 51.5863 12.5732 51 11.9306C50.4304 11.288 50 10.8319 50 9.94219C50 8.83827 51.1289 7.73392 52 6.95953C52.8878 6.18514 53.6766 5.96531 55 5.96531C55.8376 5.96531 56.3634 5.71817 57 5.96531C57.6366 6.19598 58.6482 6.58058 59 6.95953C59.3518 7.32201 58.8157 7.57479 59 7.95375C59.1843 8.33271 59.9497 8.58549 60 8.94797L57 9.94219C56.933 9.5138 56.335 9.2775 56 8.94797C55.6817 8.61844 55.6366 7.95375 55 7.95375C54.5644 7.95375 54.3183 8.7173 54 8.94797C53.6985 9.17864 53 9.59618 53 9.94219C53 10.5353 53.2462 10.8046 54 10.9364H56C57.1894 11.1836 58.3802 11.2716 59 11.9306C59.6366 12.5897 60 13.9906 60 14.9133C60 16.0007 59.8376 17.1051 59 17.8959C58.1624 18.6868 56.5244 18.8902 55 18.8902C54.1289 18.8902 53.6868 19.1373 53 18.8902C52.3132 18.6265 51.3853 18.2914 51 17.8959C50.6315 17.484 50.201 16.3029 50 15.9075C49.8157 15.4956 50.0503 15.2922 50 14.9133Z" fill="white"/>
<path d="M60 14.9133H63C63.0335 15.4405 63.6147 15.545 64 15.9075C64.402 16.2535 64.3132 15.9075 65 15.9075C65.5193 15.9075 65.7152 16.1382 66 15.9075C66.2848 15.6768 67 15.2593 67 14.9133C67 14.3037 65.8878 14.1003 65 13.9191H64C62.8441 13.6719 61.5863 12.5732 61 11.9306C60.4304 11.288 60 10.8319 60 9.94219C60 8.83827 61.1289 7.73392 62 6.95953C62.8878 6.18514 63.6766 5.96531 65 5.96531C65.8376 5.96531 66.3634 5.71817 67 5.96531C67.6366 6.19598 68.6482 6.58058 69 6.95953C69.3518 7.32201 68.8157 7.57479 69 7.95375C69.1843 8.33271 69.9497 8.58549 70 8.94797L67 9.94219C66.933 9.5138 66.335 9.2775 66 8.94797C65.6817 8.61844 65.6366 7.95375 65 7.95375C64.5645 7.95375 64.3183 8.7173 64 8.94797C63.6985 9.17864 63 9.59618 63 9.94219C63 10.5353 64.2462 10.8046 65 10.9364H66C67.1894 11.1836 68.3802 11.2716 69 11.9306C69.6366 12.5897 70 13.9906 70 14.9133C70 16.0007 69.8376 17.1051 69 17.8959C68.1624 18.6868 66.5244 18.8902 65 18.8902C64.1289 18.8902 63.6868 19.1373 63 18.8902C62.3132 18.6265 61.3853 18.2914 61 17.8959C60.6315 17.484 60.201 16.3029 60 15.9075C59.8157 15.4956 60.0503 15.2922 60 14.9133Z" fill="white"/>
</svg>
