<svg width="128" height="184" viewBox="0 0 128 184" fill="none" xmlns="http://www.w3.org/2000/svg">
<path d="M23.0606 0C22.5151 0 21.5545 0.676788 21.101 0.97981C20.6474 1.28283 20.3299 1.45571 20.1211 1.95962C19.9124 2.46353 20.0147 3.38429 20.1211 3.91924C20.2275 4.45418 20.7153 4.51337 21.101 4.89905C21.4866 5.28472 21.5458 5.77245 22.0808 5.87886C22.6157 5.98527 23.5365 6.08758 24.0404 5.87886C24.5443 5.67013 24.7172 5.35255 25.0202 4.89905C25.3232 4.44554 26 3.48485 26 2.93943C26 2.20804 25.5374 1.49698 25.0202 0.97981C24.503 0.462637 23.792 0 23.0606 0Z" fill="#313131"/>
<path d="M23.0606 25C22.5151 25 21.5545 25.6768 21.101 25.9798C20.6474 26.2828 20.3299 26.4557 20.1211 26.9596C19.9124 27.4635 20.0147 28.3843 20.1211 28.9192C20.2275 29.4542 20.7153 29.5134 21.101 29.899C21.4866 30.2847 21.5458 30.7725 22.0808 30.8789C22.6157 30.9853 23.5365 31.0876 24.0404 30.8789C24.5443 30.6701 24.7172 30.3526 25.0202 29.899C25.3232 29.4455 26 28.4849 26 27.9394C26 27.208 25.5374 26.497 25.0202 25.9798C24.503 25.4626 23.792 25 23.0606 25Z" fill="#313131"/>
<path d="M23.0606 51C22.5151 51 21.5545 51.6768 21.101 51.9798C20.6474 52.2828 20.3299 52.4557 20.1211 52.9596C19.9124 53.4635 20.0147 54.3843 20.1211 54.9192C20.2275 55.4542 20.7153 55.5134 21.101 55.899C21.4866 56.2847 21.5458 56.7725 22.0808 56.8789C22.6157 56.9853 23.5365 57.0876 24.0404 56.8789C24.5443 56.6701 24.7172 56.3526 25.0202 55.899C25.3232 55.4455 26 54.4849 26 53.9394C26 53.208 25.5374 52.497 25.0202 51.9798C24.503 51.4626 23.792 51 23.0606 51Z" fill="#313131"/>
<path d="M23.0606 76C22.5151 76 21.5545 76.6768 21.101 76.9798C20.6474 77.2828 20.3299 77.4557 20.1211 77.9596C19.9124 78.4635 20.0147 79.3843 20.1211 79.9192C20.2275 80.4542 20.7153 80.5134 21.101 80.899C21.4866 81.2847 21.5458 81.7725 22.0808 81.8789C22.6157 81.9853 23.5365 82.0876 24.0404 81.8789C24.5443 81.6701 24.7172 81.3526 25.0202 80.899C25.3232 80.4455 26 79.4849 26 78.9394C26 78.208 25.5374 77.497 25.0202 76.9798C24.503 76.4626 23.792 76 23.0606 76Z" fill="#313131"/>
<path d="M23.0606 102C22.5151 102 21.5545 102.677 21.101 102.98C20.6474 103.283 20.3299 103.456 20.1211 103.96C19.9124 104.464 20.0147 105.384 20.1211 105.919C20.2275 106.454 20.7153 106.513 21.101 106.899C21.4866 107.285 21.5458 107.772 22.0808 107.879C22.6157 107.985 23.5365 108.088 24.0404 107.879C24.5443 107.67 24.7172 107.353 25.0202 106.899C25.3232 106.446 26 105.485 26 104.939C26 104.208 25.5374 103.497 25.0202 102.98C24.503 102.463 23.792 102 23.0606 102Z" fill="#313131"/>
<path d="M23.0606 127C22.5151 127 21.5545 127.677 21.101 127.98C20.6474 128.283 20.3299 128.456 20.1211 128.96C19.9124 129.464 20.0147 130.384 20.1211 130.919C20.2275 131.454 20.7153 131.513 21.101 131.899C21.4866 132.285 21.5458 132.772 22.0808 132.879C22.6157 132.985 23.5365 133.088 24.0404 132.879C24.5443 132.67 24.7172 132.353 25.0202 131.899C25.3232 131.446 26 130.485 26 129.939C26 129.208 25.5374 128.497 25.0202 127.98C24.503 127.463 23.792 127 23.0606 127Z" fill="#313131"/>
<path d="M23.0606 152C22.5151 152 21.5545 152.677 21.101 152.98C20.6474 153.283 20.3299 153.456 20.1211 153.96C19.9124 154.464 20.0147 155.384 20.1211 155.919C20.2275 156.454 20.7153 156.513 21.101 156.899C21.4866 157.285 21.5458 157.772 22.0808 157.879C22.6157 157.985 23.5365 158.088 24.0404 157.879C24.5443 157.67 24.7172 157.353 25.0202 156.899C25.3232 156.446 26 155.485 26 154.939C26 154.208 25.5374 153.497 25.0202 152.98C24.503 152.463 23.792 152 23.0606 152Z" fill="#313131"/>
<path d="M23.0606 178C22.5151 178 21.5545 178.677 21.101 178.98C20.6474 179.283 20.3299 179.456 20.1211 179.96C19.9124 180.464 20.0147 181.384 20.1211 181.919C20.2275 182.454 20.7153 182.513 21.101 182.899C21.4866 183.285 21.5458 183.772 22.0808 183.879C22.6157 183.985 23.5365 184.088 24.0404 183.879C24.5443 183.67 24.7172 183.353 25.0202 182.899C25.3232 182.446 26 181.485 26 180.939C26 180.208 25.5374 179.497 25.0202 178.98C24.503 178.463 23.792 178 23.0606 178Z" fill="#313131"/>
<path d="M48.0606 0C47.5151 0 46.5545 0.676788 46.101 0.97981C45.6474 1.28283 45.3299 1.45571 45.1211 1.95962C44.9124 2.46353 45.0147 3.38429 45.1211 3.91924C45.2275 4.45418 45.7153 4.51337 46.101 4.89905C46.4866 5.28472 46.5458 5.77245 47.0808 5.87886C47.6157 5.98527 48.5365 6.08758 49.0404 5.87886C49.5443 5.67013 49.7172 5.35255 50.0202 4.89905C50.3232 4.44554 51 3.48485 51 2.93943C51 2.20804 50.5374 1.49698 50.0202 0.97981C49.503 0.462637 48.792 0 48.0606 0Z" fill="#313131"/>
<path d="M48.0606 25C47.5151 25 46.5545 25.6768 46.101 25.9798C45.6474 26.2828 45.3299 26.4557 45.1211 26.9596C44.9124 27.4635 45.0147 28.3843 45.1211 28.9192C45.2275 29.4542 45.7153 29.5134 46.101 29.899C46.4866 30.2847 46.5458 30.7725 47.0808 30.8789C47.6157 30.9853 48.5365 31.0876 49.0404 30.8789C49.5443 30.6701 49.7172 30.3526 50.0202 29.899C50.3232 29.4455 51 28.4849 51 27.9394C51 27.208 50.5374 26.497 50.0202 25.9798C49.503 25.4626 48.792 25 48.0606 25Z" fill="#313131"/>
<path d="M48.0606 51C47.5151 51 46.5545 51.6768 46.101 51.9798C45.6474 52.2828 45.3299 52.4557 45.1211 52.9596C44.9124 53.4635 45.0147 54.3843 45.1211 54.9192C45.2275 55.4542 45.7153 55.5134 46.101 55.899C46.4866 56.2847 46.5458 56.7725 47.0808 56.8789C47.6157 56.9853 48.5365 57.0876 49.0404 56.8789C49.5443 56.6701 49.7172 56.3526 50.0202 55.899C50.3232 55.4455 51 54.4849 51 53.9394C51 53.208 50.5374 52.497 50.0202 51.9798C49.503 51.4626 48.792 51 48.0606 51Z" fill="#313131"/>
<path d="M48.0606 76C47.5151 76 46.5545 76.6768 46.101 76.9798C45.6474 77.2828 45.3299 77.4557 45.1211 77.9596C44.9124 78.4635 45.0147 79.3843 45.1211 79.9192C45.2275 80.4542 45.7153 80.5134 46.101 80.899C46.4866 81.2847 46.5458 81.7725 47.0808 81.8789C47.6157 81.9853 48.5365 82.0876 49.0404 81.8789C49.5443 81.6701 49.7172 81.3526 50.0202 80.899C50.3232 80.4455 51 79.4849 51 78.9394C51 78.208 50.5374 77.497 50.0202 76.9798C49.503 76.4626 48.792 76 48.0606 76Z" fill="#313131"/>
<path d="M48.0606 102C47.5151 102 46.5545 102.677 46.101 102.98C45.6474 103.283 45.3299 103.456 45.1211 103.96C44.9124 104.464 45.0147 105.384 45.1211 105.919C45.2275 106.454 45.7153 106.513 46.101 106.899C46.4866 107.285 46.5458 107.772 47.0808 107.879C47.6157 107.985 48.5365 108.088 49.0404 107.879C49.5443 107.67 49.7172 107.353 50.0202 106.899C50.3232 106.446 51 105.485 51 104.939C51 104.208 50.5374 103.497 50.0202 102.98C49.503 102.463 48.792 102 48.0606 102Z" fill="#313131"/>
<path d="M48.0606 127C47.5151 127 46.5545 127.677 46.101 127.98C45.6474 128.283 45.3299 128.456 45.1211 128.96C44.9124 129.464 45.0147 130.384 45.1211 130.919C45.2275 131.454 45.7153 131.513 46.101 131.899C46.4866 132.285 46.5458 132.772 47.0808 132.879C47.6157 132.985 48.5365 133.088 49.0404 132.879C49.5443 132.67 49.7172 132.353 50.0202 131.899C50.3232 131.446 51 130.485 51 129.939C51 129.208 50.5374 128.497 50.0202 127.98C49.503 127.463 48.792 127 48.0606 127Z" fill="#313131"/>
<path d="M48.0606 152C47.5151 152 46.5545 152.677 46.101 152.98C45.6474 153.283 45.3299 153.456 45.1211 153.96C44.9124 154.464 45.0147 155.384 45.1211 155.919C45.2275 156.454 45.7153 156.513 46.101 156.899C46.4866 157.285 46.5458 157.772 47.0808 157.879C47.6157 157.985 48.5365 158.088 49.0404 157.879C49.5443 157.67 49.7172 157.353 50.0202 156.899C50.3232 156.446 51 155.485 51 154.939C51 154.208 50.5374 153.497 50.0202 152.98C49.503 152.463 48.792 152 48.0606 152Z" fill="#313131"/>
<path d="M48.0606 178C47.5151 178 46.5545 178.677 46.101 178.98C45.6474 179.283 45.3299 179.456 45.1211 179.96C44.9124 180.464 45.0147 181.384 45.1211 181.919C45.2275 182.454 45.7153 182.513 46.101 182.899C46.4866 183.285 46.5458 183.772 47.0808 183.879C47.6157 183.985 48.5365 184.088 49.0404 183.879C49.5443 183.67 49.7172 183.353 50.0202 182.899C50.3232 182.446 51 181.485 51 180.939C51 180.208 50.5374 179.497 50.0202 178.98C49.503 178.463 48.792 178 48.0606 178Z" fill="#313131"/>
<path d="M74.0606 0C73.5151 0 72.5545 0.676788 72.101 0.97981C71.6474 1.28283 71.3299 1.45571 71.1211 1.95962C70.9124 2.46353 71.0147 3.38429 71.1211 3.91924C71.2275 4.45418 71.7153 4.51337 72.101 4.89905C72.4866 5.28472 72.5458 5.77245 73.0808 5.87886C73.6157 5.98527 74.5365 6.08758 75.0404 5.87886C75.5443 5.67013 75.7172 5.35255 76.0202 4.89905C76.3232 4.44554 77 3.48485 77 2.93943C77 2.20804 76.5374 1.49698 76.0202 0.97981C75.503 0.462637 74.792 0 74.0606 0Z" fill="#313131"/>
<path d="M74.0606 25C73.5151 25 72.5545 25.6768 72.101 25.9798C71.6474 26.2828 71.3299 26.4557 71.1211 26.9596C70.9124 27.4635 71.0147 28.3843 71.1211 28.9192C71.2275 29.4542 71.7153 29.5134 72.101 29.899C72.4866 30.2847 72.5458 30.7725 73.0808 30.8789C73.6157 30.9853 74.5365 31.0876 75.0404 30.8789C75.5443 30.6701 75.7172 30.3526 76.0202 29.899C76.3232 29.4455 77 28.4849 77 27.9394C77 27.208 76.5374 26.497 76.0202 25.9798C75.503 25.4626 74.792 25 74.0606 25Z" fill="#313131"/>
<path d="M74.0606 51C73.5151 51 72.5545 51.6768 72.101 51.9798C71.6474 52.2828 71.3299 52.4557 71.1211 52.9596C70.9124 53.4635 71.0147 54.3843 71.1211 54.9192C71.2275 55.4542 71.7153 55.5134 72.101 55.899C72.4866 56.2847 72.5458 56.7725 73.0808 56.8789C73.6157 56.9853 74.5365 57.0876 75.0404 56.8789C75.5443 56.6701 75.7172 56.3526 76.0202 55.899C76.3232 55.4455 77 54.4849 77 53.9394C77 53.208 76.5374 52.497 76.0202 51.9798C75.503 51.4626 74.792 51 74.0606 51Z" fill="#313131"/>
<path d="M74.0606 76C73.5151 76 72.5545 76.6768 72.101 76.9798C71.6474 77.2828 71.3299 77.4557 71.1211 77.9596C70.9124 78.4635 71.0147 79.3843 71.1211 79.9192C71.2275 80.4542 71.7153 80.5134 72.101 80.899C72.4866 81.2847 72.5458 81.7725 73.0808 81.8789C73.6157 81.9853 74.5365 82.0876 75.0404 81.8789C75.5443 81.6701 75.7172 81.3526 76.0202 80.899C76.3232 80.4455 77 79.4849 77 78.9394C77 78.208 76.5374 77.497 76.0202 76.9798C75.503 76.4626 74.792 76 74.0606 76Z" fill="#313131"/>
<path d="M74.0606 102C73.5151 102 72.5545 102.677 72.101 102.98C71.6474 103.283 71.3299 103.456 71.1211 103.96C70.9124 104.464 71.0147 105.384 71.1211 105.919C71.2275 106.454 71.7153 106.513 72.101 106.899C72.4866 107.285 72.5458 107.772 73.0808 107.879C73.6157 107.985 74.5365 108.088 75.0404 107.879C75.5443 107.67 75.7172 107.353 76.0202 106.899C76.3232 106.446 77 105.485 77 104.939C77 104.208 76.5374 103.497 76.0202 102.98C75.503 102.463 74.792 102 74.0606 102Z" fill="#313131"/>
<path d="M74.0606 127C73.5151 127 72.5545 127.677 72.101 127.98C71.6474 128.283 71.3299 128.456 71.1211 128.96C70.9124 129.464 71.0147 130.384 71.1211 130.919C71.2275 131.454 71.7153 131.513 72.101 131.899C72.4866 132.285 72.5458 132.772 73.0808 132.879C73.6157 132.985 74.5365 133.088 75.0404 132.879C75.5443 132.67 75.7172 132.353 76.0202 131.899C76.3232 131.446 77 130.485 77 129.939C77 129.208 76.5374 128.497 76.0202 127.98C75.503 127.463 74.792 127 74.0606 127Z" fill="#313131"/>
<path d="M74.0606 152C73.5151 152 72.5545 152.677 72.101 152.98C71.6474 153.283 71.3299 153.456 71.1211 153.96C70.9124 154.464 71.0147 155.384 71.1211 155.919C71.2275 156.454 71.7153 156.513 72.101 156.899C72.4866 157.285 72.5458 157.772 73.0808 157.879C73.6157 157.985 74.5365 158.088 75.0404 157.879C75.5443 157.67 75.7172 157.353 76.0202 156.899C76.3232 156.446 77 155.485 77 154.939C77 154.208 76.5374 153.497 76.0202 152.98C75.503 152.463 74.792 152 74.0606 152Z" fill="#313131"/>
<path d="M74.0606 178C73.5151 178 72.5545 178.677 72.101 178.98C71.6474 179.283 71.3299 179.456 71.1211 179.96C70.9124 180.464 71.0147 181.384 71.1211 181.919C71.2275 182.454 71.7153 182.513 72.101 182.899C72.4866 183.285 72.5458 183.772 73.0808 183.879C73.6157 183.985 74.5365 184.088 75.0404 183.879C75.5443 183.67 75.7172 183.353 76.0202 182.899C76.3232 182.446 77 181.485 77 180.939C77 180.208 76.5374 179.497 76.0202 178.98C75.503 178.463 74.792 178 74.0606 178Z" fill="#313131"/>
<path d="M99.0606 0C98.5151 0 97.5545 0.676788 97.101 0.97981C96.6474 1.28283 96.3299 1.45571 96.1211 1.95962C95.9124 2.46353 96.0147 3.38429 96.1211 3.91924C96.2275 4.45418 96.7153 4.51337 97.101 4.89905C97.4866 5.28472 97.5458 5.77245 98.0808 5.87886C98.6157 5.98527 99.5365 6.08758 100.04 5.87886C100.544 5.67013 100.717 5.35255 101.02 4.89905C101.323 4.44554 102 3.48485 102 2.93943C102 2.20804 101.537 1.49698 101.02 0.97981C100.503 0.462637 99.792 0 99.0606 0Z" fill="#313131"/>
<path d="M99.0606 25C98.5151 25 97.5545 25.6768 97.101 25.9798C96.6474 26.2828 96.3299 26.4557 96.1211 26.9596C95.9124 27.4635 96.0147 28.3843 96.1211 28.9192C96.2275 29.4542 96.7153 29.5134 97.101 29.899C97.4866 30.2847 97.5458 30.7725 98.0808 30.8789C98.6157 30.9853 99.5365 31.0876 100.04 30.8789C100.544 30.6701 100.717 30.3526 101.02 29.899C101.323 29.4455 102 28.4849 102 27.9394C102 27.208 101.537 26.497 101.02 25.9798C100.503 25.4626 99.792 25 99.0606 25Z" fill="#313131"/>
<path d="M99.0606 51C98.5151 51 97.5545 51.6768 97.101 51.9798C96.6474 52.2828 96.3299 52.4557 96.1211 52.9596C95.9124 53.4635 96.0147 54.3843 96.1211 54.9192C96.2275 55.4542 96.7153 55.5134 97.101 55.899C97.4866 56.2847 97.5458 56.7725 98.0808 56.8789C98.6157 56.9853 99.5365 57.0876 100.04 56.8789C100.544 56.6701 100.717 56.3526 101.02 55.899C101.323 55.4455 102 54.4849 102 53.9394C102 53.208 101.537 52.497 101.02 51.9798C100.503 51.4626 99.792 51 99.0606 51Z" fill="#313131"/>
<path d="M99.0606 76C98.5151 76 97.5545 76.6768 97.101 76.9798C96.6474 77.2828 96.3299 77.4557 96.1211 77.9596C95.9124 78.4635 96.0147 79.3843 96.1211 79.9192C96.2275 80.4542 96.7153 80.5134 97.101 80.899C97.4866 81.2847 97.5458 81.7725 98.0808 81.8789C98.6157 81.9853 99.5365 82.0876 100.04 81.8789C100.544 81.6701 100.717 81.3526 101.02 80.899C101.323 80.4455 102 79.4849 102 78.9394C102 78.208 101.537 77.497 101.02 76.9798C100.503 76.4626 99.792 76 99.0606 76Z" fill="#313131"/>
<path d="M99.0606 102C98.5151 102 97.5545 102.677 97.101 102.98C96.6474 103.283 96.3299 103.456 96.1211 103.96C95.9124 104.464 96.0147 105.384 96.1211 105.919C96.2275 106.454 96.7153 106.513 97.101 106.899C97.4866 107.285 97.5458 107.772 98.0808 107.879C98.6157 107.985 99.5365 108.088 100.04 107.879C100.544 107.67 100.717 107.353 101.02 106.899C101.323 106.446 102 105.485 102 104.939C102 104.208 101.537 103.497 101.02 102.98C100.503 102.463 99.792 102 99.0606 102Z" fill="#313131"/>
<path d="M99.0606 127C98.5151 127 97.5545 127.677 97.101 127.98C96.6474 128.283 96.3299 128.456 96.1211 128.96C95.9124 129.464 96.0147 130.384 96.1211 130.919C96.2275 131.454 96.7153 131.513 97.101 131.899C97.4866 132.285 97.5458 132.772 98.0808 132.879C98.6157 132.985 99.5365 133.088 100.04 132.879C100.544 132.67 100.717 132.353 101.02 131.899C101.323 131.446 102 130.485 102 129.939C102 129.208 101.537 128.497 101.02 127.98C100.503 127.463 99.792 127 99.0606 127Z" fill="#313131"/>
<path d="M99.0606 152C98.5151 152 97.5545 152.677 97.101 152.98C96.6474 153.283 96.3299 153.456 96.1211 153.96C95.9124 154.464 96.0147 155.384 96.1211 155.919C96.2275 156.454 96.7153 156.513 97.101 156.899C97.4866 157.285 97.5458 157.772 98.0808 157.879C98.6157 157.985 99.5365 158.088 100.04 157.879C100.544 157.67 100.717 157.353 101.02 156.899C101.323 156.446 102 155.485 102 154.939C102 154.208 101.537 153.497 101.02 152.98C100.503 152.463 99.792 152 99.0606 152Z" fill="#313131"/>
<path d="M99.0606 178C98.5151 178 97.5545 178.677 97.101 178.98C96.6474 179.283 96.3299 179.456 96.1211 179.96C95.9124 180.464 96.0147 181.384 96.1211 181.919C96.2275 182.454 96.7153 182.513 97.101 182.899C97.4866 183.285 97.5458 183.772 98.0808 183.879C98.6157 183.985 99.5365 184.088 100.04 183.879C100.544 183.67 100.717 183.353 101.02 182.899C101.323 182.446 102 181.485 102 180.939C102 180.208 101.537 179.497 101.02 178.98C100.503 178.463 99.792 178 99.0606 178Z" fill="#313131"/>
<path d="M125.061 0C124.515 0 123.554 0.676788 123.101 0.97981C122.647 1.28283 122.33 1.45571 122.121 1.95962C121.912 2.46353 122.015 3.38429 122.121 3.91924C122.228 4.45418 122.715 4.51337 123.101 4.89905C123.487 5.28472 123.546 5.77245 124.081 5.87886C124.616 5.98527 125.536 6.08758 126.04 5.87886C126.544 5.67013 126.717 5.35255 127.02 4.89905C127.323 4.44554 128 3.48485 128 2.93943C128 2.20804 127.537 1.49698 127.02 0.97981C126.503 0.462637 125.792 0 125.061 0Z" fill="#313131"/>
<path d="M125.061 25C124.515 25 123.554 25.6768 123.101 25.9798C122.647 26.2828 122.33 26.4557 122.121 26.9596C121.912 27.4635 122.015 28.3843 122.121 28.9192C122.228 29.4542 122.715 29.5134 123.101 29.899C123.487 30.2847 123.546 30.7725 124.081 30.8789C124.616 30.9853 125.536 31.0876 126.04 30.8789C126.544 30.6701 126.717 30.3526 127.02 29.899C127.323 29.4455 128 28.4849 128 27.9394C128 27.208 127.537 26.497 127.02 25.9798C126.503 25.4626 125.792 25 125.061 25Z" fill="#313131"/>
<path d="M125.061 51C124.515 51 123.554 51.6768 123.101 51.9798C122.647 52.2828 122.33 52.4557 122.121 52.9596C121.912 53.4635 122.015 54.3843 122.121 54.9192C122.228 55.4542 122.715 55.5134 123.101 55.899C123.487 56.2847 123.546 56.7725 124.081 56.8789C124.616 56.9853 125.536 57.0876 126.04 56.8789C126.544 56.6701 126.717 56.3526 127.02 55.899C127.323 55.4455 128 54.4849 128 53.9394C128 53.208 127.537 52.497 127.02 51.9798C126.503 51.4626 125.792 51 125.061 51Z" fill="#313131"/>
<path d="M125.061 76C124.515 76 123.554 76.6768 123.101 76.9798C122.647 77.2828 122.33 77.4557 122.121 77.9596C121.912 78.4635 122.015 79.3843 122.121 79.9192C122.228 80.4542 122.715 80.5134 123.101 80.899C123.487 81.2847 123.546 81.7725 124.081 81.8789C124.616 81.9853 125.536 82.0876 126.04 81.8789C126.544 81.6701 126.717 81.3526 127.02 80.899C127.323 80.4455 128 79.4849 128 78.9394C128 78.208 127.537 77.497 127.02 76.9798C126.503 76.4626 125.792 76 125.061 76Z" fill="#313131"/>
<path d="M125.061 102C124.515 102 123.554 102.677 123.101 102.98C122.647 103.283 122.33 103.456 122.121 103.96C121.912 104.464 122.015 105.384 122.121 105.919C122.228 106.454 122.715 106.513 123.101 106.899C123.487 107.285 123.546 107.772 124.081 107.879C124.616 107.985 125.536 108.088 126.04 107.879C126.544 107.67 126.717 107.353 127.02 106.899C127.323 106.446 128 105.485 128 104.939C128 104.208 127.537 103.497 127.02 102.98C126.503 102.463 125.792 102 125.061 102Z" fill="#313131"/>
<path d="M125.061 127C124.515 127 123.554 127.677 123.101 127.98C122.647 128.283 122.33 128.456 122.121 128.96C121.912 129.464 122.015 130.384 122.121 130.919C122.228 131.454 122.715 131.513 123.101 131.899C123.487 132.285 123.546 132.772 124.081 132.879C124.616 132.985 125.536 133.088 126.04 132.879C126.544 132.67 126.717 132.353 127.02 131.899C127.323 131.446 128 130.485 128 129.939C128 129.208 127.537 128.497 127.02 127.98C126.503 127.463 125.792 127 125.061 127Z" fill="#313131"/>
<path d="M125.061 152C124.515 152 123.554 152.677 123.101 152.98C122.647 153.283 122.33 153.456 122.121 153.96C121.912 154.464 122.015 155.384 122.121 155.919C122.228 156.454 122.715 156.513 123.101 156.899C123.487 157.285 123.546 157.772 124.081 157.879C124.616 157.985 125.536 158.088 126.04 157.879C126.544 157.67 126.717 157.353 127.02 156.899C127.323 156.446 128 155.485 128 154.939C128 154.208 127.537 153.497 127.02 152.98C126.503 152.463 125.792 152 125.061 152Z" fill="#313131"/>
<path d="M125.061 178C124.515 178 123.554 178.677 123.101 178.98C122.647 179.283 122.33 179.456 122.121 179.96C121.912 180.464 122.015 181.384 122.121 181.919C122.228 182.454 122.715 182.513 123.101 182.899C123.487 183.285 123.546 183.772 124.081 183.879C124.616 183.985 125.536 184.088 126.04 183.879C126.544 183.67 126.717 183.353 127.02 182.899C127.323 182.446 128 181.485 128 180.939C128 180.208 127.537 179.497 127.02 178.98C126.503 178.463 125.792 178 125.061 178Z" fill="#313131"/>
</svg>
